# Blender 3.6.5
# www.blender.org
mtllib sw.mtl
o Cube
v 1.000000 -1.000000 -1.000000
v 1.000000 1.000000 -1.000000
v 1.000000 -1.000000 1.000000
v 1.000000 1.000000 1.000000
v -1.000000 -1.000000 -1.000000
v -1.000000 1.000000 -1.000000
v -1.000000 -1.000000 1.000000
v -1.000000 1.000000 1.000000
v 1.787133 2.114094 -1.787133
v 1.787133 2.114094 1.787133
v -1.787133 2.114094 1.787133
v -1.787133 2.114094 -1.787133
v 1.787133 6.663446 -1.787133
v 1.787133 6.663446 1.787133
v -1.787133 6.663446 1.787133
v -1.787133 6.663446 -1.787133
v 0.932892 8.890913 -0.932892
v 0.932892 8.890913 0.932892
v -0.932892 8.890913 0.932892
v -0.932892 8.890913 -0.932892
v 0.932892 16.930162 -0.936883
v 0.932892 16.930204 0.924930
v -0.932892 16.930204 0.924930
v -0.932892 16.930162 -0.936883
v 0.264767 18.085739 -0.928900
v 0.264767 18.085699 0.940853
v -0.264767 18.085699 0.940853
v -0.264767 18.085739 -0.928900
v 0.264767 24.094406 -0.932892
v 0.264767 24.094406 0.932892
v -0.264767 24.094406 0.932892
v -0.264767 24.094406 -0.932892
v 0.264767 43.477028 -0.932892
v 0.264767 43.477028 0.932892
v -0.264767 43.477028 0.932892
v -0.264767 43.477028 -0.932892
v 0.101014 44.845119 -0.355919
v 0.101014 44.845119 0.355919
v -0.101014 44.845119 0.355919
v -0.101014 44.845119 -0.355919
v -0.932892 16.984514 -3.415467
v 0.932892 16.984514 -3.415467
v -0.264767 18.103947 -3.702337
v 0.264767 18.103947 -3.702337
v -0.932892 16.531275 -4.220340
v 0.932892 16.531275 -4.220340
v -0.264767 17.339539 -5.046254
v 0.264767 17.339539 -5.046254
v -0.932892 16.072632 -4.455420
v 0.932892 16.072632 -4.455420
v -0.264767 16.401466 -5.563252
v 0.264767 16.401466 -5.563252
v -0.932892 15.476280 -4.511660
v 0.932892 15.476280 -4.511660
v -0.264767 15.278788 -5.650266
v 0.264767 15.278788 -5.650266
v -0.932892 15.079946 -4.314555
v 0.932892 15.079946 -4.314555
v -0.264767 14.493284 -5.310173
v 0.264767 14.493284 -5.310173
v -0.932892 14.678547 -4.034435
v 0.932892 14.678547 -4.034435
v -0.264767 13.784472 -4.766592
v 0.264767 13.784472 -4.766592
v -0.932892 14.499717 -3.629970
v 0.932892 14.499717 -3.629970
v -0.264767 13.390297 -3.953407
v 0.264767 13.390297 -3.953407
v -0.932892 14.433222 -3.101270
v 0.932892 14.433222 -3.101270
v -0.264767 13.277725 -3.085389
v 0.264767 13.277725 -3.085389
v -0.932892 14.430410 -2.833752
v 0.932892 14.430410 -2.833752
v -0.264767 13.459603 -2.206886
v 0.264767 13.459603 -2.206886
v -0.932892 14.726781 -2.699509
v 0.932892 14.726781 -2.699509
v -0.264767 14.094373 -1.732303
v 0.264767 14.094373 -1.732303
v 0.932892 16.864826 3.596118
v -0.932892 16.864826 3.596118
v 0.264767 18.008760 3.432298
v -0.264767 18.008760 3.432298
v 0.932892 17.350939 4.994191
v -0.932892 17.350939 4.994191
v 0.264767 18.238913 4.254648
v -0.264767 18.238913 4.254648
v 0.932892 18.028278 5.404196
v -0.932892 18.028278 5.404196
v 0.264767 18.492716 4.346028
v -0.264767 18.492716 4.346028
v 0.932892 18.663109 5.610633
v -0.932892 18.663109 5.610633
v 0.264767 18.789026 4.461908
v -0.264767 18.789026 4.461908
v 0.932892 19.327204 5.544223
v -0.932892 19.327204 5.544223
v 0.264767 19.056078 4.420873
v -0.264767 19.056078 4.420873
v 0.932892 20.004498 5.293340
v -0.932892 20.004498 5.293340
v 0.264767 19.524803 4.241999
v -0.264767 19.524803 4.241999
v 0.932892 20.851685 4.776700
v -0.932892 20.851685 4.776700
v 0.264767 19.931086 4.078187
v -0.264767 19.931086 4.078187
v 0.932892 21.088236 3.966192
v -0.932892 21.088236 3.966192
v 0.264767 19.981037 3.635231
v -0.264767 19.981037 3.635231
v 0.932892 21.391186 2.936373
v -0.932892 21.391186 2.936373
v 0.264767 20.251095 3.125085
v -0.264767 20.251095 3.125085
v 0.932892 20.713760 1.985033
v -0.932892 20.713760 1.985033
v 0.264767 19.818321 2.715518
v -0.264767 19.818321 2.715518
vn 1.0000 -0.0000 -0.0000
vn -0.0000 -0.0000 1.0000
vn -1.0000 -0.0000 -0.0000
vn -0.0000 -0.0000 -1.0000
vn -0.0000 -1.0000 -0.0000
vn 0.8167 -0.5770 -0.0000
vn -0.0000 -0.5770 -0.8167
vn -0.0000 -0.5770 0.8167
vn -0.8167 -0.5770 -0.0000
vn -0.0000 0.3581 0.9337
vn -0.9337 0.3581 -0.0000
vn 0.9337 0.3581 -0.0000
vn -0.0000 0.3581 -0.9337
vn -0.0000 1.0000 0.0066
vn -0.0000 -0.0005 -1.0000
vn -0.0000 0.0010 1.0000
vn -0.0000 0.9995 0.0309
vn -0.8657 0.5005 -0.0000
vn 0.8657 0.5005 -0.0000
vn -0.0000 -0.0007 -1.0000
vn -0.0000 0.0013 1.0000
vn -0.0000 0.3886 0.9214
vn -0.0000 1.0000 -0.0000
vn -0.9929 0.1188 -0.0000
vn 0.9929 0.1188 -0.0000
vn -0.0000 0.3886 -0.9214
vn -0.8574 0.4478 -0.2538
vn -0.0000 -0.9998 -0.0219
vn -0.8619 0.5071 0.0070
vn 0.8619 0.5071 0.0070
vn 0.8590 0.2427 -0.4508
vn -0.0000 -0.8713 0.4907
vn 0.8574 0.4478 -0.2538
vn -0.0000 0.8692 -0.4944
vn -0.8598 0.0424 -0.5089
vn -0.0000 0.4827 -0.8758
vn -0.8590 0.2427 -0.4508
vn -0.0000 -0.4561 0.8899
vn -0.8615 -0.2101 -0.4622
vn -0.0000 -0.0939 0.9956
vn 0.8598 0.0424 -0.5089
vn -0.0000 0.0773 -0.9970
vn 0.8618 -0.3023 -0.4074
vn -0.0000 0.4453 0.8954
vn 0.8615 -0.2101 -0.4622
vn -0.0000 -0.3973 -0.9177
vn -0.8610 -0.4602 -0.2165
vn -0.0000 -0.6085 -0.7935
vn -0.8618 -0.3023 -0.4074
vn -0.0000 0.5723 0.8201
vn -0.0000 0.9922 0.1248
vn -0.0000 0.9146 0.4044
vn 0.8610 -0.4602 -0.2165
vn -0.0000 -0.8999 -0.4362
vn 0.8547 -0.5129 0.0801
vn 0.8633 -0.5006 -0.0642
vn -0.0000 -0.9917 -0.1286
vn -0.8633 -0.5006 -0.0642
vn -0.8559 -0.2830 0.4328
vn -0.0000 -0.9792 0.2027
vn -0.8547 -0.5129 0.0801
vn -0.0000 0.9999 0.0105
vn -0.0000 0.8370 0.5473
vn -0.0000 0.4126 -0.9109
vn 0.8559 -0.2830 0.4328
vn -0.0000 -0.5988 0.8009
vn -0.0000 0.9630 -0.2695
vn 0.8641 0.5031 0.0139
vn -0.0000 -0.9997 -0.0245
vn -0.8641 0.5031 0.0139
vn 0.8572 0.2442 -0.4535
vn 0.8559 0.4922 -0.1588
vn -0.0000 -0.9445 0.3284
vn -0.8559 0.4922 -0.1588
vn -0.8626 0.1655 -0.4780
vn -0.0000 -0.5178 0.8555
vn -0.8572 0.2442 -0.4535
vn -0.0000 0.3388 -0.9409
vn 0.8621 -0.0581 -0.5033
vn -0.0000 0.3642 -0.9313
vn 0.8626 0.1655 -0.4780
vn -0.0000 -0.3092 0.9510
vn 0.8647 -0.1764 -0.4704
vn -0.0000 0.0995 0.9950
vn -0.8621 -0.0581 -0.5033
vn -0.0000 -0.1519 -0.9884
vn -0.8553 -0.2472 -0.4553
vn -0.0000 0.3474 0.9377
vn -0.8647 -0.1764 -0.4704
vn -0.0000 -0.3565 -0.9343
vn 0.8553 -0.5050 -0.1154
vn -0.0000 -0.3739 -0.9275
vn 0.8553 -0.2472 -0.4553
vn -0.0000 0.5207 0.8538
vn -0.0000 0.9593 0.2822
vn -0.0000 0.9600 0.2802
vn -0.8553 -0.5050 -0.1154
vn -0.0000 -0.9937 -0.1121
vn -0.8502 -0.4079 0.3327
vn -0.8500 -0.4938 -0.1837
vn -0.0000 -0.8838 -0.4679
vn 0.8500 -0.4938 -0.1837
vn -0.0000 -0.6321 -0.7749
vn -0.0000 -0.6874 0.7263
vn 0.8502 -0.4079 0.3327
vn -0.0000 0.8146 -0.5800
vt 0.375000 0.000000
vt 0.625000 0.000000
vt 0.625000 0.250000
vt 0.375000 0.250000
vt 0.625000 0.500000
vt 0.375000 0.500000
vt 0.625000 0.750000
vt 0.375000 0.750000
vt 0.625000 1.000000
vt 0.375000 1.000000
vt 0.125000 0.500000
vt 0.125000 0.750000
vt 0.625000 0.082122
vt 0.625000 0.250000
vt 0.625000 0.917878
vt 0.707122 0.667878
vt 0.707122 0.582122
vt 0.634813 0.269627
vt 0.727617 0.602617
vt 0.727617 0.647383
vt 0.625000 0.122244
vt 0.644627 0.858129
vt 0.772382 0.602617
vt 0.772383 0.647382
s 0
f 1/1/1 2/2/1 4/3/1 3/4/1
f 3/4/2 4/3/2 8/5/2 7/6/2
f 7/6/3 8/5/3 6/7/3 5/8/3
f 5/8/4 6/7/4 2/9/4 1/10/4
f 3/11/5 7/6/5 5/8/5 1/12/5
f 4/3/6 2/2/6 9/13/6 10/14/6
f 9/15/4 12/16/4 16/16/4 13/15/4
f 2/9/7 6/7/7 12/16/7 9/15/7
f 8/5/8 4/3/8 10/14/8 11/17/8
f 6/7/9 8/5/9 11/17/9 12/16/9
f 15/17/10 14/14/10 18/18/10 19/19/10
f 11/17/2 10/14/2 14/14/2 15/17/2
f 12/16/3 11/17/3 15/17/3 16/16/3
f 10/14/1 9/13/1 13/13/1 14/14/1
f 20/20/3 19/19/3 23/19/3 24/20/3
f 16/16/11 15/17/11 19/19/11 20/20/11
f 14/14/12 13/13/12 17/21/12 18/18/12
f 13/15/13 16/16/13 20/20/13 17/22/13
f 28/20/14 25/22/14 44/22/14 43/20/14
f 18/18/1 17/21/1 21/21/1 22/18/1
f 17/22/15 20/20/15 24/20/15 21/22/15
f 19/19/16 18/18/16 22/18/16 23/19/16
f 28/20/3 27/19/3 31/19/3 32/20/3
f 26/18/17 27/19/17 84/19/17 83/18/17
f 24/20/18 23/19/18 27/19/18 28/20/18
f 22/18/19 21/21/19 25/21/19 26/18/19
f 29/22/4 32/20/4 36/20/4 33/22/4
f 26/18/1 25/21/1 29/21/1 30/18/1
f 25/22/20 28/20/20 32/20/20 29/22/20
f 27/19/21 26/18/21 30/18/21 31/19/21
f 35/19/22 34/18/22 38/18/22 39/19/22
f 31/19/2 30/18/2 34/18/2 35/19/2
f 32/20/3 31/19/3 35/19/3 36/20/3
f 30/18/1 29/21/1 33/21/1 34/18/1
f 39/19/23 38/23/23 37/24/23 40/20/23
f 36/20/24 35/19/24 39/19/24 40/20/24
f 34/18/25 33/21/25 37/21/25 38/18/25
f 33/22/26 36/20/26 40/20/26 37/22/26
f 41/20/27 43/20/27 47/20/27 45/20/27
f 21/22/28 24/20/28 41/20/28 42/22/28
f 24/20/29 28/20/29 43/20/29 41/20/29
f 25/21/30 21/21/30 42/21/30 44/21/30
f 48/21/31 46/21/31 50/21/31 52/21/31
f 42/22/32 41/20/32 45/20/32 46/22/32
f 44/21/33 42/21/33 46/21/33 48/21/33
f 43/20/34 44/22/34 48/22/34 47/20/34
f 49/20/35 51/20/35 55/20/35 53/20/35
f 47/20/36 48/22/36 52/22/36 51/20/36
f 45/20/37 47/20/37 51/20/37 49/20/37
f 46/22/38 45/20/38 49/20/38 50/22/38
f 53/20/39 55/20/39 59/20/39 57/20/39
f 50/22/40 49/20/40 53/20/40 54/22/40
f 52/21/41 50/21/41 54/21/41 56/21/41
f 51/20/42 52/22/42 56/22/42 55/20/42
f 60/21/43 58/21/43 62/21/43 64/21/43
f 54/22/44 53/20/44 57/20/44 58/22/44
f 56/21/45 54/21/45 58/21/45 60/21/45
f 55/20/46 56/22/46 60/22/46 59/20/46
f 61/20/47 63/20/47 67/20/47 65/20/47
f 59/20/48 60/22/48 64/22/48 63/20/48
f 57/20/49 59/20/49 63/20/49 61/20/49
f 58/22/50 57/20/50 61/20/50 62/22/50
f 66/22/51 65/20/51 69/20/51 70/22/51
f 62/22/52 61/20/52 65/20/52 66/22/52
f 64/21/53 62/21/53 66/21/53 68/21/53
f 63/20/54 64/22/54 68/22/54 67/20/54
f 72/21/55 70/21/55 74/21/55 76/21/55
f 68/21/56 66/21/56 70/21/56 72/21/56
f 67/20/57 68/22/57 72/22/57 71/20/57
f 65/20/58 67/20/58 71/20/58 69/20/58
f 73/20/59 75/20/59 79/20/59 77/20/59
f 71/20/60 72/22/60 76/22/60 75/20/60
f 69/20/61 71/20/61 75/20/61 73/20/61
f 70/22/62 69/20/62 73/20/62 74/22/62
f 78/22/63 77/20/63 79/20/63 80/22/63
f 74/22/64 73/20/64 77/20/64 78/22/64
f 76/21/65 74/21/65 78/21/65 80/21/65
f 75/20/66 76/22/66 80/22/66 79/20/66
f 83/18/67 84/19/67 88/19/67 87/18/67
f 22/18/68 26/18/68 83/18/68 81/18/68
f 23/19/69 22/18/69 81/18/69 82/19/69
f 27/19/70 23/19/70 82/19/70 84/19/70
f 85/18/71 87/18/71 91/18/71 89/18/71
f 81/18/72 83/18/72 87/18/72 85/18/72
f 82/19/73 81/18/73 85/18/73 86/19/73
f 84/19/74 82/19/74 86/19/74 88/19/74
f 92/19/75 90/19/75 94/19/75 96/19/75
f 86/19/76 85/18/76 89/18/76 90/19/76
f 88/19/77 86/19/77 90/19/77 92/19/77
f 87/18/78 88/19/78 92/19/78 91/18/78
f 93/18/79 95/18/79 99/18/79 97/18/79
f 91/18/80 92/19/80 96/19/80 95/18/80
f 89/18/81 91/18/81 95/18/81 93/18/81
f 90/19/82 89/18/82 93/18/82 94/19/82
f 97/18/83 99/18/83 103/18/83 101/18/83
f 94/19/84 93/18/84 97/18/84 98/19/84
f 96/19/85 94/19/85 98/19/85 100/19/85
f 95/18/86 96/19/86 100/19/86 99/18/86
f 104/19/87 102/19/87 106/19/87 108/19/87
f 98/19/88 97/18/88 101/18/88 102/19/88
f 100/19/89 98/19/89 102/19/89 104/19/89
f 99/18/90 100/19/90 104/19/90 103/18/90
f 105/18/91 107/18/91 111/18/91 109/18/91
f 103/18/92 104/19/92 108/19/92 107/18/92
f 101/18/93 103/18/93 107/18/93 105/18/93
f 102/19/94 101/18/94 105/18/94 106/19/94
f 110/19/95 109/18/95 113/18/95 114/19/95
f 106/19/96 105/18/96 109/18/96 110/19/96
f 108/19/97 106/19/97 110/19/97 112/19/97
f 107/18/98 108/19/98 112/19/98 111/18/98
f 116/19/99 114/19/99 118/19/99 120/19/99
f 112/19/100 110/19/100 114/19/100 116/19/100
f 111/18/101 112/19/101 116/19/101 115/18/101
f 109/18/102 111/18/102 115/18/102 113/18/102
f 118/19/103 117/18/103 119/18/103 120/19/103
f 115/18/104 116/19/104 120/19/104 119/18/104
f 113/18/105 115/18/105 119/18/105 117/18/105
f 114/19/106 113/18/106 117/18/106 118/19/106
